<?xml version="1.0" encoding="UTF-8" standalone="no"?>
<svg
   id="Warstwa_2"
   viewBox="0 0 1000 1000"
   height="100"
   width="100"
   version="1.1"
   sodipodi:docname="logo.svg"
   inkscape:version="1.3.2 (091e20ef0f, 2023-11-25, custom)"
   inkscape:export-filename="logo.svg"
   inkscape:export-xdpi="96"
   inkscape:export-ydpi="96"
   xml:space="preserve"
   xmlns:inkscape="http://www.inkscape.org/namespaces/inkscape"
   xmlns:sodipodi="http://sodipodi.sourceforge.net/DTD/sodipodi-0.dtd"
   xmlns="http://www.w3.org/2000/svg"
   xmlns:svg="http://www.w3.org/2000/svg"><sodipodi:namedview
   id="namedview17"
   pagecolor="#ffffff"
   bordercolor="#000000"
   borderopacity="0.25"
   inkscape:showpageshadow="2"
   inkscape:pageopacity="0.0"
   inkscape:pagecheckerboard="0"
   inkscape:deskcolor="#d1d1d1"
   inkscape:zoom="6.7102736"
   inkscape:cx="85.987552"
   inkscape:cy="48.284171"
   inkscape:window-width="1920"
   inkscape:window-height="1008"
   inkscape:window-x="0"
   inkscape:window-y="0"
   inkscape:window-maximized="1"
   inkscape:current-layer="Warstwa_1-2" />
    <defs
   id="defs1"><style
     id="style1">
      .cls-1 {
        fill: #50772d;
      }

      .cls-2, .cls-3 {
        fill: #fff;
      }

      .cls-4 {
        fill: #79c3a2;
      }

      .cls-5 {
        fill: none;
      }

      .cls-5, .cls-3 {
        stroke: #000;
        stroke-linecap: round;
        stroke-linejoin: round;
        stroke-width: 10px;
      }

      .cls-6 {
        fill: #5dbfbd;
      }
    </style></defs>
    <g
   id="Warstwa_1-2"
   data-name="Warstwa_1"
   inkscape:label="logo"><g
   id="g6"
   inkscape:label="earth"
   transform="scale(2.0639607,2.0608856)"><path
     class="cls-1"
     d="m 484.63,242.32 c 0,18.67 -2.11,36.85 -6.11,54.3 l -40.5,-6.77 c -24.49,62.15 1.35,-4.99 -50.51,-61.59 -157.75,-94.75 -95.75,-57.11 -101.08,-96.89 7.37,-13.3 -78.72,41.94 -69.11,-9.33 2.1,-37.63 64.7,-29.01 83.33,-59.11 L 285.84,3.9 c 0.17,0.03 0.34,0.06 0.5,0.1 112.81,20.7 198.29,119.53 198.29,238.32 z"
     id="path2" /><path
     class="cls-1"
     d="M 28.41,128.37 C 63.66,62.33 128.59,14.55 205.38,2.8 h 0.01 C 324.9,75.68 51.8,111.62 28.41,128.37 Z"
     id="path3" /><path
     class="cls-1"
     d="M 109.96,445.32 C 43.75,402.07 0,327.3 0,242.32 0,225.05 1.81,208.22 5.25,191.97 v 0 c 61.55,36.75 44.42,72.11 57.27,138.57 5.92,30.6 18.19,67.8 47.44,114.78 z"
     id="path4" /><path
     class="cls-4"
     d="m 438.02,289.85 c -24.49,62.15 1.35,-4.99 -50.51,-61.59 -157.75,-94.75 -95.75,-57.11 -101.08,-96.89 7.37,-13.3 -78.72,41.94 -69.11,-9.33 2.1,-37.63 64.7,-29.01 83.33,-59.11 L 285.84,3.9 C 271.72,1.34 257.17,0 242.31,0 236.04,0 229.82,0.24 223.66,0.71 217.5,1.18 211.41,1.88 205.39,2.8 324.9,75.68 51.8,111.62 28.41,128.37 17.88,148.09 10,169.45 5.25,191.95 v 0 c 61.55,36.77 44.42,72.13 57.27,138.59 5.92,30.6 18.19,67.8 47.44,114.78 38.05,24.86 83.51,39.31 132.35,39.31 115.16,0 211.56,-80.33 236.21,-188.01 z m -144.35,72.54 -4.48,35.63 c -18.4,26.7 -66.52,66.79 -97.94,48.13 -35.5,-21.08 -7.16,-77.68 -2.66,-121.71 -29.73,-10.44 -59.02,-32.61 -72.12,-65.91 -5.42,-20.74 -21.56,-76.13 72.15,-76.37 11.07,-7.27 41.66,37.21 115.32,38.91 8.46,35.44 10.27,76.35 40.88,93.13 -1.61,27.11 -21.28,41.3 -51.15,48.19 z"
     id="path5" /><path
     class="cls-1"
     d="m 344.82,314.2 c -1.61,27.11 -21.28,41.3 -51.15,48.19 l -4.48,35.63 c -18.4,26.7 -66.52,66.79 -97.94,48.13 -35.5,-21.08 -7.16,-77.68 -2.66,-121.71 -29.73,-10.44 -59.02,-32.61 -72.12,-65.91 -5.42,-20.74 -21.56,-76.13 72.15,-76.37 11.07,-7.27 41.66,37.21 115.32,38.91 8.46,35.44 10.27,76.35 40.88,93.13 z"
     id="path6"
     sodipodi:nodetypes="ccccccccc" /></g>
        <g
   id="rect1-2-0"
   data-name="rect1"
   style="stroke:#25471f;stroke-opacity:1"
   transform="matrix(2.0422161,-0.29836432,0.29880951,2.0391735,-458.19299,-155.56888)"
   inkscape:label="left"><path
   class="cls-2"
   d="m 361.79,373.83 c -1.1,0 -2.21,-0.36 -3.13,-1.11 l -95.81,-77.15 c -2.15,-1.73 -2.49,-4.88 -0.76,-7.03 l 25.72,-31.94 c 0.83,-1.03 2.04,-1.69 3.36,-1.83 0.18,-0.02 0.36,-0.03 0.54,-0.03 1.14,0 2.24,0.39 3.14,1.11 L 390.66,333 c 2.15,1.73 2.49,4.88 0.76,7.03 l -25.72,31.94 c -0.99,1.23 -2.44,1.86 -3.9,1.86 z"
   id="path10-1"
   style="fill:#ffffff;stroke:#25471f;stroke-opacity:1" />
            <polyline
   class="cls-5"
   points="318.44 281.27 307.33 294.98 292.63 313.14"
   id="polyline12-7"
   style="fill:#202f11;fill-opacity:1;stroke:#25471f;stroke-width:10px;stroke-linecap:round;stroke-linejoin:round;stroke-opacity:1"
   transform="rotate(-1.14585,437.07025,170.13245)" />
            <path
   style="fill:#25471f;fill-opacity:1;stroke:#25471f;stroke-width:10;stroke-linecap:round;stroke-linejoin:bevel;stroke-dasharray:none;stroke-opacity:1;paint-order:stroke fill markers"
   d="M 276.75483,274.54709 378.83932,355.6401"
   id="path12-7" />
            <polyline
   class="cls-5"
   points="318.44 281.27 307.33 294.98 292.63 313.14"
   id="polyline12-0-4"
   style="fill:#202f11;fill-opacity:1;stroke:#25471f;stroke-width:10px;stroke-linecap:round;stroke-linejoin:round;stroke-opacity:1"
   transform="rotate(-1.14585,1903.2649,-1680.7084)" />
            <path
   d="m 291.7,259.74 95.81,77.15 -25.72,31.94 -95.81,-77.15 25.72,-31.94 m 0.01,-10 c -2.92,0 -5.82,1.27 -7.79,3.73 l -25.72,31.94 c -1.66,2.07 -2.44,4.71 -2.15,7.34 0.28,2.64 1.6,5.05 3.67,6.72 l 95.81,77.15 c 1.79,1.44 4,2.21 6.27,2.21 0.36,0 0.71,-0.02 1.07,-0.06 2.64,-0.28 5.05,-1.6 6.72,-3.67 l 25.72,-31.94 c 3.46,-4.3 2.78,-10.6 -1.52,-14.06 l -95.81,-77.15 c -1.85,-1.49 -4.06,-2.21 -6.27,-2.21 z"
   id="path11-7"
   style="fill:#25471f;fill-opacity:1;stroke:#25471f;stroke-opacity:1"
   sodipodi:nodetypes="cccccscccccscccccs" /></g>
        <g
   id="rect3"
   style="stroke:#25471f;stroke-opacity:1"
   transform="matrix(-2.0404946,0.30988473,-0.31034711,-2.0374546,1073.8161,922.27773)"
   inkscape:label="middle"><path
   class="cls-2"
   d="m 185.05,332.06 c -1.97,0 -3.91,-0.67 -5.46,-1.88 l -3.7,-2.9 c -1.87,-1.46 -3.06,-3.56 -3.34,-5.91 -0.28,-2.35 0.36,-4.68 1.82,-6.54 L 295.09,160.39 c 1.69,-2.17 4.24,-3.41 6.99,-3.41 1.97,0 3.91,0.67 5.46,1.88 l 3.71,2.9 c 3.85,3.01 4.54,8.6 1.53,12.45 L 192.06,328.65 c -1.69,2.17 -4.24,3.41 -6.99,3.41 z"
   id="path13"
   style="stroke:#25471f;stroke-opacity:1" />
            <path
   d="m 302.07,161.97 c 0.83,0 1.67,0.27 2.38,0.82 l 3.71,2.9 c 1.69,1.32 1.98,3.75 0.67,5.44 L 188.11,325.57 c -0.76,0.98 -1.9,1.49 -3.05,1.49 -0.83,0 -1.67,-0.27 -2.38,-0.82 l -3.71,-2.9 c -1.69,-1.32 -1.98,-3.75 -0.67,-5.44 L 299.02,163.46 c 0.76,-0.98 1.9,-1.49 3.05,-1.49 m 0,-10 v 0 c -4.3,0 -8.28,1.94 -10.93,5.33 L 170.42,311.74 c -4.71,6.03 -3.64,14.76 2.39,19.47 l 3.71,2.9 c 2.43,1.9 5.46,2.94 8.54,2.94 4.3,0 8.29,-1.94 10.93,-5.33 L 316.71,177.28 c 2.28,-2.92 3.29,-6.55 2.84,-10.23 -0.45,-3.68 -2.31,-6.96 -5.23,-9.24 l -3.71,-2.9 c -2.43,-1.9 -5.46,-2.94 -8.54,-2.94 z"
   id="path14"
   style="fill:#25471f;fill-opacity:1;stroke:#25471f;stroke-opacity:1" />
            <g
   id="rect18"
   style="stroke:#25471f;stroke-opacity:1"
   transform="rotate(178.92673,244.07577,243.08632)"><path
   class="cls-2"
   d="m 245.23,299.51 c -1.14,0 -2.24,-0.39 -3.14,-1.11 l -52.37,-42.17 c -1.03,-0.83 -1.69,-2.04 -1.84,-3.36 -0.15,-1.32 0.25,-2.64 1.08,-3.67 l 44.86,-55.71 c 0.83,-1.03 2.04,-1.69 3.36,-1.84 0.18,-0.02 0.36,-0.03 0.54,-0.03 1.14,0 2.24,0.39 3.14,1.11 l 52.37,42.17 c 2.15,1.73 2.49,4.88 0.76,7.03 l -44.86,55.71 c -0.83,1.03 -2.04,1.69 -3.36,1.83 -0.18,0.02 -0.36,0.03 -0.54,0.03 z"
   id="path15"
   style="stroke:#25471f;stroke-opacity:1" />
                <path
   d="m 240.86,192.73 52.37,42.17 -44.86,55.71 -52.37,-42.17 44.86,-55.71 m 0,-10 c -0.36,0 -0.71,0.02 -1.07,0.06 -2.64,0.28 -5.05,1.6 -6.72,3.67 l -44.86,55.71 c -1.66,2.07 -2.44,4.71 -2.15,7.34 0.29,2.63 1.6,5.05 3.67,6.72 l 52.37,42.17 c 1.85,1.49 4.06,2.21 6.27,2.21 2.92,0 5.82,-1.28 7.79,-3.73 l 44.86,-55.71 c 3.46,-4.3 2.78,-10.6 -1.52,-14.06 l -52.37,-42.17 c -1.79,-1.44 -4,-2.21 -6.27,-2.21 z"
   id="path16"
   style="fill:#25471f;fill-opacity:1;stroke:#25471f;stroke-opacity:1" /></g></g>
        <g
   id="g13"
   transform="matrix(1.7965872,1.0144628,-1.0159764,1.7939105,681.02217,-167.68287)"
   style="stroke:#25471f;stroke-opacity:1"
   inkscape:label="right"><path
   class="cls-2"
   d="m 256.93194,350.34183 c -0.86902,0.67439 -1.96665,1.0705 -3.15328,1.04202 l -122.99102,-2.21089 c -2.75917,-0.0486 -4.95898,-2.32873 -4.91037,-5.0879 l 0.73756,-41.00169 c 0.0242,-1.32257 0.57553,-2.58581 1.53253,-3.50568 0.12994,-0.12616 0.26601,-0.24441 0.40822,-0.35477 0.90062,-0.69891 2.00875,-1.06519 3.16118,-1.04815 l 122.99102,2.21089 c 2.75917,0.0486 4.95898,2.32874 4.91037,5.08791 l -0.73755,41.00168 c -0.028,1.57868 -0.78733,2.96536 -1.94076,3.86045 z"
   id="path10"
   style="stroke:#25471f;stroke-opacity:1" />
            <path
   d="m 131.61308,303.17916 122.99102,2.21089 -0.73756,41.00168 -122.99102,-2.21089 0.73756,-41.00168 m -6.1229,-7.90634 c -2.30686,1.79019 -3.81931,4.57145 -3.86748,7.72267 l -0.73755,41.00168 c -0.0424,2.65306 0.95996,5.21692 2.80146,7.11688 1.83974,1.91399 4.36009,3.00868 7.01928,3.05893 l 122.99102,2.21089 c 2.29697,0.0402 4.51499,-0.70637 6.30833,-2.09806 0.28441,-0.22071 0.54866,-0.45109 0.80854,-0.7034 1.91399,-1.83974 3.00868,-4.36009 3.05894,-7.01927 l 0.73755,-41.00169 c 0.0972,-5.51834 -4.30239,-10.07858 -9.82074,-10.17581 l -122.99102,-2.21089 c -2.37502,-0.0429 -4.56239,0.74316 -6.30833,2.09807 z"
   id="path11"
   style="fill:#25471f;fill-opacity:1;stroke:#25471f;stroke-opacity:1"
   sodipodi:nodetypes="cccccscccccscccccs" />
            <polyline
   class="cls-5"
   points="318.44 281.27 307.33 294.98 292.63 313.14"
   id="polyline12"
   style="fill:#202f11;fill-opacity:1;stroke:#25471f;stroke-opacity:1"
   transform="rotate(-38.958402,276.31483,503.80194)" />
            <path
   style="fill:#25471f;fill-opacity:1;stroke:#25471f;stroke-width:10;stroke-linecap:round;stroke-linejoin:bevel;stroke-dasharray:none;stroke-opacity:1;paint-order:stroke fill markers"
   d="m 128.88402,324.03965 130.36537,1.47919"
   id="path12" />
            <polyline
   class="cls-5"
   points="318.44 281.27 307.33 294.98 292.63 313.14"
   id="polyline12-0"
   style="fill:#202f11;fill-opacity:1;stroke:#25471f;stroke-width:10px;stroke-linecap:round;stroke-linejoin:round;stroke-opacity:1"
   transform="rotate(-38.958402,299.92524,437.0512)" /></g></g></svg>
