<svg id="Warstwa_2" viewBox="0 0 1000 1000" height="100" width="100" version="1.1" xml:space="preserve" xmlns="http://www.w3.org/2000/svg"><defs id="defs1"><style id="style1">.cls-1{fill:#50772d}.cls-2{fill:#fff}.cls-5{fill:none;stroke:#000;stroke-linecap:round;stroke-linejoin:round;stroke-width:10px}</style></defs><g id="Warstwa_1-2" data-name="Warstwa_1"><g id="g6" transform="scale(2.06396 2.06089)"><path class="cls-1" d="M484.63 242.32c0 18.67-2.11 36.85-6.11 54.3l-40.5-6.77c-24.49 62.15 1.35-4.99-50.51-61.59-157.75-94.75-95.75-57.11-101.08-96.89 7.37-13.3-78.72 41.94-69.11-9.33 2.1-37.63 64.7-29.01 83.33-59.11L285.84 3.9c.17.03.34.06.5.1 112.81 20.7 198.29 119.53 198.29 238.32z" id="path2"/><path class="cls-1" d="M28.41 128.37C63.66 62.33 128.59 14.55 205.38 2.8h.01C324.9 75.68 51.8 111.62 28.41 128.37Z" id="path3"/><path class="cls-1" d="M109.96 445.32C43.75 402.07 0 327.3 0 242.32c0-17.27 1.81-34.1 5.25-50.35 61.55 36.75 44.42 72.11 57.27 138.57 5.92 30.6 18.19 67.8 47.44 114.78z" id="path4"/><path d="M438.02 289.85c-24.49 62.15 1.35-4.99-50.51-61.59-157.75-94.75-95.75-57.11-101.08-96.89 7.37-13.3-78.72 41.94-69.11-9.33 2.1-37.63 64.7-29.01 83.33-59.11L285.84 3.9C271.72 1.34 257.17 0 242.31 0c-6.27 0-12.49.24-18.65.71-6.16.47-12.25 1.17-18.27 2.09C324.9 75.68 51.8 111.62 28.41 128.37a240.322 240.322 0 0 0-23.16 63.58c61.55 36.77 44.42 72.13 57.27 138.59 5.92 30.6 18.19 67.8 47.44 114.78 38.05 24.86 83.51 39.31 132.35 39.31 115.16 0 211.56-80.33 236.21-188.01zm-144.35 72.54-4.48 35.63c-18.4 26.7-66.52 66.79-97.94 48.13-35.5-21.08-7.16-77.68-2.66-121.71-29.73-10.44-59.02-32.61-72.12-65.91-5.42-20.74-21.56-76.13 72.15-76.37 11.07-7.27 41.66 37.21 115.32 38.91 8.46 35.44 10.27 76.35 40.88 93.13-1.61 27.11-21.28 41.3-51.15 48.19z" id="path5" style="fill:#79c3a2"/><path class="cls-1" d="M344.82 314.2c-1.61 27.11-21.28 41.3-51.15 48.19l-4.48 35.63c-18.4 26.7-66.52 66.79-97.94 48.13-35.5-21.08-7.16-77.68-2.66-121.71-29.73-10.44-59.02-32.61-72.12-65.91-5.42-20.74-21.56-76.13 72.15-76.37 11.07-7.27 41.66 37.21 115.32 38.91 8.46 35.44 10.27 76.35 40.88 93.13z" id="path6"/></g><g id="rect1-2-0" data-name="rect1" style="stroke:#25471f;stroke-opacity:1" transform="matrix(2.04222 -.29836 .29881 2.03917 -458.193 -155.569)"><path class="cls-2" d="M361.79 373.83c-1.1 0-2.21-.36-3.13-1.11l-95.81-77.15a5.002 5.002 0 0 1-.76-7.03l25.72-31.94a4.993 4.993 0 0 1 3.9-1.86c1.14 0 2.24.39 3.14 1.11L390.66 333a5.002 5.002 0 0 1 .76 7.03l-25.72 31.94a4.986 4.986 0 0 1-3.9 1.86z" id="path10-1" style="fill:#fff;stroke:#25471f;stroke-opacity:1"/><path class="cls-5" id="polyline12-7" style="fill:#202f11;fill-opacity:1;stroke:#25471f;stroke-width:10px;stroke-linecap:round;stroke-linejoin:round;stroke-opacity:1" transform="rotate(-1.146 437.07 170.132)" d="m318.44 281.27-11.11 13.71-14.7 18.16"/><path style="fill:#25471f;fill-opacity:1;stroke:#25471f;stroke-width:10;stroke-linecap:round;stroke-linejoin:bevel;stroke-dasharray:none;stroke-opacity:1;paint-order:stroke fill markers" d="m276.755 274.547 102.084 81.093" id="path12-7"/><path class="cls-5" id="polyline12-0-4" style="fill:#202f11;fill-opacity:1;stroke:#25471f;stroke-width:10px;stroke-linecap:round;stroke-linejoin:round;stroke-opacity:1" transform="rotate(-1.146 1903.265 -1680.708)" d="m318.44 281.27-11.11 13.71-14.7 18.16"/><path d="m291.7 259.74 95.81 77.15-25.72 31.94-95.81-77.15 25.72-31.94m.01-10c-2.92 0-5.82 1.27-7.79 3.73l-25.72 31.94a9.992 9.992 0 0 0-2.15 7.34 9.98 9.98 0 0 0 3.67 6.72l95.81 77.15a9.992 9.992 0 0 0 7.34 2.15 9.98 9.98 0 0 0 6.72-3.67l25.72-31.94c3.46-4.3 2.78-10.6-1.52-14.06l-95.81-77.15a9.944 9.944 0 0 0-6.27-2.21z" id="path11-7" style="fill:#25471f;fill-opacity:1;stroke:#25471f;stroke-opacity:1"/></g><g id="rect3" style="stroke:#25471f;stroke-opacity:1" transform="matrix(-2.0405 .30988 -.31035 -2.03745 1073.816 922.278)"><path class="cls-2" d="M185.05 332.06c-1.97 0-3.91-.67-5.46-1.88l-3.7-2.9a8.772 8.772 0 0 1-3.34-5.91c-.28-2.35.36-4.68 1.82-6.54l120.72-154.44a8.802 8.802 0 0 1 6.99-3.41c1.97 0 3.91.67 5.46 1.88l3.71 2.9c3.85 3.01 4.54 8.6 1.53 12.45L192.06 328.65a8.802 8.802 0 0 1-6.99 3.41z" id="path13" style="stroke:#25471f;stroke-opacity:1"/><path d="M302.07 161.97c.83 0 1.67.27 2.38.82l3.71 2.9a3.88 3.88 0 0 1 .67 5.44L188.11 325.57c-.76.98-1.9 1.49-3.05 1.49-.83 0-1.67-.27-2.38-.82l-3.71-2.9a3.88 3.88 0 0 1-.67-5.44l120.72-154.44c.76-.98 1.9-1.49 3.05-1.49m0-10c-4.3 0-8.28 1.94-10.93 5.33L170.42 311.74c-4.71 6.03-3.64 14.76 2.39 19.47l3.71 2.9c2.43 1.9 5.46 2.94 8.54 2.94 4.3 0 8.29-1.94 10.93-5.33l120.72-154.44a13.79 13.79 0 0 0 2.84-10.23c-.45-3.68-2.31-6.96-5.23-9.24l-3.71-2.9c-2.43-1.9-5.46-2.94-8.54-2.94z" id="path14" style="fill:#25471f;fill-opacity:1;stroke:#25471f;stroke-opacity:1"/><g id="rect18" style="stroke:#25471f;stroke-opacity:1" transform="rotate(178.927 244.076 243.086)"><path class="cls-2" d="M245.23 299.51c-1.14 0-2.24-.39-3.14-1.11l-52.37-42.17a5.046 5.046 0 0 1-1.84-3.36c-.15-1.32.25-2.64 1.08-3.67l44.86-55.71a5.046 5.046 0 0 1 3.9-1.87c1.14 0 2.24.39 3.14 1.11l52.37 42.17a5.002 5.002 0 0 1 .76 7.03l-44.86 55.71a4.993 4.993 0 0 1-3.9 1.86z" id="path15" style="stroke:#25471f;stroke-opacity:1"/><path d="m240.86 192.73 52.37 42.17-44.86 55.71L196 248.44l44.86-55.71m0-10c-.36 0-.71.02-1.07.06a9.98 9.98 0 0 0-6.72 3.67l-44.86 55.71a9.992 9.992 0 0 0-2.15 7.34c.29 2.63 1.6 5.05 3.67 6.72l52.37 42.17a9.944 9.944 0 0 0 6.27 2.21 9.98 9.98 0 0 0 7.79-3.73l44.86-55.71c3.46-4.3 2.78-10.6-1.52-14.06l-52.37-42.17c-1.79-1.44-4-2.21-6.27-2.21z" id="path16" style="fill:#25471f;fill-opacity:1;stroke:#25471f;stroke-opacity:1"/></g></g><g id="g13" transform="matrix(1.79659 1.01446 -1.01598 1.79391 681.022 -167.683)" style="stroke:#25471f;stroke-opacity:1"><path class="cls-2" d="M256.932 350.342a4.935 4.935 0 0 1-3.153 1.042l-122.991-2.211a5.002 5.002 0 0 1-4.91-5.088l.737-41.002a4.993 4.993 0 0 1 1.94-3.86 5.015 5.015 0 0 1 3.162-1.048l122.99 2.21a5.002 5.002 0 0 1 4.911 5.089l-.737 41.001a4.986 4.986 0 0 1-1.941 3.86z" id="path10" style="stroke:#25471f;stroke-opacity:1"/><path d="m131.613 303.18 122.991 2.21-.737 41.002-122.991-2.211.737-41.002m-6.123-7.906a9.948 9.948 0 0 0-3.867 7.722l-.738 41.002a9.992 9.992 0 0 0 2.802 7.117 9.98 9.98 0 0 0 7.019 3.059l122.99 2.21a9.992 9.992 0 0 0 7.118-2.8 9.98 9.98 0 0 0 3.059-7.02l.737-41.002c.097-5.518-4.302-10.078-9.82-10.175l-122.991-2.211a9.944 9.944 0 0 0-6.309 2.098z" id="path11" style="fill:#25471f;fill-opacity:1;stroke:#25471f;stroke-opacity:1"/><path class="cls-5" id="polyline12" style="fill:#202f11;fill-opacity:1;stroke:#25471f;stroke-opacity:1" transform="rotate(-38.958 276.315 503.802)" d="m318.44 281.27-11.11 13.71-14.7 18.16"/><path style="fill:#25471f;fill-opacity:1;stroke:#25471f;stroke-width:10;stroke-linecap:round;stroke-linejoin:bevel;stroke-dasharray:none;stroke-opacity:1;paint-order:stroke fill markers" d="m128.884 324.04 130.365 1.479" id="path12"/><path class="cls-5" id="polyline12-0" style="fill:#202f11;fill-opacity:1;stroke:#25471f;stroke-width:10px;stroke-linecap:round;stroke-linejoin:round;stroke-opacity:1" transform="rotate(-38.958 299.925 437.051)" d="m318.44 281.27-11.11 13.71-14.7 18.16"/></g></g></svg>